<mxfile host="app.diagrams.net" agent="Mozilla/5.0 (Windows NT 10.0; Win64; x64) AppleWebKit/537.36 (KHTML, like Gecko) Chrome/135.0.0.0 Safari/537.36 Edg/135.0.0.0" version="26.2.14">
  <diagram name="Page-1" id="e3igGR8lYneihuWngkJ7">
    <mxGraphModel>
      <root>
        <mxCell id="0" />
        <mxCell id="1" parent="0" />
        <mxCell id="2" value="Services" style="whiteSpace=wrap;strokeWidth=2;" vertex="1" parent="1">
          <mxGeometry x="8" y="514" width="750" height="230" as="geometry" />
        </mxCell>
        <mxCell id="3" value="User" style="whiteSpace=wrap;strokeWidth=2;" vertex="1" parent="1">
          <mxGeometry x="238" y="8" width="92" height="54" as="geometry" />
        </mxCell>
        <mxCell id="4" value="API Gateway" style="whiteSpace=wrap;strokeWidth=2;" vertex="1" parent="1">
          <mxGeometry x="209" y="134" width="150" height="54" as="geometry" />
        </mxCell>
        <mxCell id="5" value="Service Discovery" style="whiteSpace=wrap;strokeWidth=2;" vertex="1" parent="1">
          <mxGeometry x="192" y="261" width="185" height="54" as="geometry" />
        </mxCell>
        <mxCell id="6" value="Eureka Server" style="whiteSpace=wrap;strokeWidth=2;" vertex="1" parent="1">
          <mxGeometry x="205" y="387" width="159" height="54" as="geometry" />
        </mxCell>
        <mxCell id="7" value="Service A" style="whiteSpace=wrap;strokeWidth=2;" vertex="1" parent="1">
          <mxGeometry x="69" y="539" width="125" height="54" as="geometry" />
        </mxCell>
        <mxCell id="8" value="Service B" style="whiteSpace=wrap;strokeWidth=2;" vertex="1" parent="1">
          <mxGeometry x="325" y="539" width="126" height="54" as="geometry" />
        </mxCell>
        <mxCell id="9" value="Service C" style="whiteSpace=wrap;strokeWidth=2;" vertex="1" parent="1">
          <mxGeometry x="582" y="539" width="126" height="54" as="geometry" />
        </mxCell>
        <mxCell id="10" value="Config Server" style="whiteSpace=wrap;strokeWidth=2;" vertex="1" parent="1">
          <mxGeometry x="414" y="387" width="156" height="54" as="geometry" />
        </mxCell>
        <mxCell id="11" value="Database A" style="whiteSpace=wrap;strokeWidth=2;" vertex="1" parent="1">
          <mxGeometry x="62" y="665" width="139" height="54" as="geometry" />
        </mxCell>
        <mxCell id="12" value="Database B" style="whiteSpace=wrap;strokeWidth=2;" vertex="1" parent="1">
          <mxGeometry x="318" y="665" width="139" height="54" as="geometry" />
        </mxCell>
        <mxCell id="13" value="Database C" style="whiteSpace=wrap;strokeWidth=2;" vertex="1" parent="1">
          <mxGeometry x="575" y="665" width="140" height="54" as="geometry" />
        </mxCell>
        <mxCell id="14" value="HTTP Requests" style="curved=1;startArrow=none;endArrow=block;exitX=0.5;exitY=1;entryX=0.5;entryY=0.01;" edge="1" parent="1" source="3" target="4">
          <mxGeometry relative="1" as="geometry">
            <Array as="points" />
          </mxGeometry>
        </mxCell>
        <mxCell id="15" value="Routes Requests" style="curved=1;startArrow=none;endArrow=block;exitX=0.5;exitY=1.01;entryX=0.5;entryY=0;" edge="1" parent="1" source="4" target="5">
          <mxGeometry relative="1" as="geometry">
            <Array as="points" />
          </mxGeometry>
        </mxCell>
        <mxCell id="16" value="Register" style="curved=1;startArrow=none;endArrow=block;exitX=0.39;exitY=1;entryX=0.37;entryY=0;" edge="1" parent="1" source="5" target="6">
          <mxGeometry relative="1" as="geometry">
            <Array as="points">
              <mxPoint x="235" y="351" />
            </Array>
          </mxGeometry>
        </mxCell>
        <mxCell id="17" value="Get Services" style="curved=1;startArrow=none;endArrow=block;exitX=0.61;exitY=1;entryX=0.63;entryY=0;" edge="1" parent="1" source="5" target="6">
          <mxGeometry relative="1" as="geometry">
            <Array as="points">
              <mxPoint x="333" y="351" />
            </Array>
          </mxGeometry>
        </mxCell>
        <mxCell id="18" value="Service A" style="curved=1;startArrow=none;endArrow=block;exitX=0;exitY=0.96;entryX=0.29;entryY=-0.01;" edge="1" parent="1" source="6" target="7">
          <mxGeometry relative="1" as="geometry">
            <Array as="points">
              <mxPoint x="80" y="477" />
              <mxPoint x="80" y="514" />
            </Array>
          </mxGeometry>
        </mxCell>
        <mxCell id="19" value="Service B" style="curved=1;startArrow=none;endArrow=block;exitX=0.5;exitY=1;entryX=0.07;entryY=-0.01;" edge="1" parent="1" source="6" target="8">
          <mxGeometry relative="1" as="geometry">
            <Array as="points">
              <mxPoint x="284" y="477" />
              <mxPoint x="284" y="514" />
            </Array>
          </mxGeometry>
        </mxCell>
        <mxCell id="20" value="Service C" style="curved=1;startArrow=none;endArrow=block;exitX=1;exitY=0.8;entryX=0.29;entryY=-0.01;" edge="1" parent="1" source="6" target="9">
          <mxGeometry relative="1" as="geometry">
            <Array as="points">
              <mxPoint x="594" y="477" />
              <mxPoint x="594" y="514" />
            </Array>
          </mxGeometry>
        </mxCell>
        <mxCell id="21" value="Fetch Config" style="curved=1;startArrow=none;endArrow=block;exitX=0;exitY=0.8;entryX=0.71;entryY=-0.01;" edge="1" parent="1" source="10" target="7">
          <mxGeometry relative="1" as="geometry">
            <Array as="points">
              <mxPoint x="182" y="477" />
              <mxPoint x="182" y="514" />
            </Array>
          </mxGeometry>
        </mxCell>
        <mxCell id="22" value="Fetch Config" style="curved=1;startArrow=none;endArrow=block;exitX=0.5;exitY=1;entryX=0.93;entryY=-0.01;" edge="1" parent="1" source="10" target="8">
          <mxGeometry relative="1" as="geometry">
            <Array as="points">
              <mxPoint x="491" y="477" />
              <mxPoint x="491" y="514" />
            </Array>
          </mxGeometry>
        </mxCell>
        <mxCell id="23" value="Fetch Config" style="curved=1;startArrow=none;endArrow=block;exitX=1;exitY=0.95;entryX=0.71;entryY=-0.01;" edge="1" parent="1" source="10" target="9">
          <mxGeometry relative="1" as="geometry">
            <Array as="points">
              <mxPoint x="696" y="477" />
              <mxPoint x="696" y="514" />
            </Array>
          </mxGeometry>
        </mxCell>
        <mxCell id="24" value="Service A Logic" style="curved=1;startArrow=none;endArrow=block;exitX=0.5;exitY=0.99;entryX=0.5;entryY=0;" edge="1" parent="1" source="7" target="11">
          <mxGeometry relative="1" as="geometry">
            <Array as="points" />
          </mxGeometry>
        </mxCell>
        <mxCell id="25" value="Service B Logic" style="curved=1;startArrow=none;endArrow=block;exitX=0.5;exitY=0.99;entryX=0.5;entryY=0;" edge="1" parent="1" source="8" target="12">
          <mxGeometry relative="1" as="geometry">
            <Array as="points" />
          </mxGeometry>
        </mxCell>
        <mxCell id="26" value="Service C Logic" style="curved=1;startArrow=none;endArrow=block;exitX=0.5;exitY=0.99;entryX=0.5;entryY=0;" edge="1" parent="1" source="9" target="13">
          <mxGeometry relative="1" as="geometry">
            <Array as="points" />
          </mxGeometry>
        </mxCell>
      </root>
    </mxGraphModel>
  </diagram>
</mxfile>
